<svg width="105" height="100" viewBox="0 0 105 100" fill="none" xmlns="http://www.w3.org/2000/svg">
<circle cx="55.1661" cy="49.8339" r="49.3339" stroke="url(#paint0_linear_81_163)"/>
<circle cx="49.8339" cy="49.8339" r="49.8339" fill="url(#paint1_linear_81_163)"/>
<path d="M46.4532 66.5482C46.0704 65.7827 45.7834 64.8419 45.592 63.7256C45.4326 62.6093 45.3369 60.9987 45.305 58.8937C45.2731 56.5017 44.699 54.8272 43.5827 53.8704C42.4983 52.8817 40.8877 52.3874 38.7508 52.3874H29.996V66.5482H25.5947V33.0598H40.9037C43.1043 33.0598 45.002 33.4744 46.5967 34.3037C48.2233 35.101 49.4512 36.2013 50.2804 37.6047C51.1415 38.9761 51.5721 40.491 51.5721 42.1495C51.5721 44.2226 50.998 45.9927 49.8498 47.4598C48.7017 48.9269 47.0432 50.0272 44.8744 50.7608C46.5648 51.3987 47.8565 52.3714 48.7495 53.6791C49.6425 54.9548 50.1209 56.709 50.1847 58.9415C50.2485 60.8551 50.3761 62.3063 50.5674 63.295C50.7588 64.2837 51.1894 65.1448 51.8591 65.8784V66.5482H46.4532ZM40.5209 48.2252C42.5302 48.2252 44.093 47.7468 45.2093 46.79C46.3575 45.8013 46.9316 44.4458 46.9316 42.7236C46.9316 40.9694 46.3575 39.614 45.2093 38.6571C44.093 37.7003 42.5302 37.2219 40.5209 37.2219H29.996V48.2252H40.5209Z" fill="black"/>
<path d="M64.7601 63.7894C66.5143 63.7894 67.9336 63.3588 69.0179 62.4977C70.1023 61.6046 70.8678 60.3448 71.3143 58.7183L74.9023 60.1056C74.1369 62.402 72.909 64.204 71.2186 65.5116C69.5282 66.7874 67.3754 67.4252 64.7601 67.4252C62.5595 67.4252 60.5821 66.9468 58.8279 65.99C57.1056 65.0013 55.7502 63.6139 54.7615 61.8279C53.8046 60.01 53.3262 57.889 53.3262 55.4651C53.3262 53.2963 53.7728 51.3349 54.6658 49.5807C55.5588 47.7947 56.8186 46.3914 58.4452 45.3708C60.1037 44.3183 62.0013 43.792 64.1382 43.792C67.1681 43.792 69.608 44.6691 71.4578 46.4232C73.3076 48.1455 74.2326 50.4897 74.2326 53.4558C74.2326 54.4445 74.1369 55.3694 73.9455 56.2306H57.5362C57.5681 58.6864 58.2698 60.5681 59.6412 61.8757C61.0445 63.1515 62.7508 63.7894 64.7601 63.7894ZM64.0904 47.4279C62.3362 47.4279 60.8532 47.9541 59.6412 49.0066C58.4611 50.0591 57.7595 51.4784 57.5362 53.2644H70.1183L70.1661 52.5947C70.1661 50.9681 69.5761 49.7083 68.396 48.8153C67.2478 47.8904 65.8126 47.4279 64.0904 47.4279Z" fill="black"/>
<defs>
<linearGradient id="paint0_linear_81_163" x1="41.2254" y1="6.34248" x2="87.8349" y2="10.0247" gradientUnits="userSpaceOnUse">
<stop offset="0.0729167" stop-color="#B1E8ED"/>
<stop offset="0.244881" stop-color="#CFEADB"/>
<stop offset="0.505208" stop-color="#BDE5DD"/>
<stop offset="1" stop-color="#F3D8BB"/>
</linearGradient>
<linearGradient id="paint1_linear_81_163" x1="35.8932" y1="6.34248" x2="82.5027" y2="10.0247" gradientUnits="userSpaceOnUse">
<stop offset="0.0729167" stop-color="#B1E8ED"/>
<stop offset="0.244881" stop-color="#CFEADB"/>
<stop offset="0.505208" stop-color="#BDE5DD"/>
<stop offset="1" stop-color="#F3D8BB"/>
</linearGradient>
</defs>
</svg>
